<svg xmlns="http://www.w3.org/2000/svg" width="800" height="800" viewBox="0 0 800 800">

    <defs>
      <linearGradient id="waveGrad" x1="0" y1="0" x2="1" y2="0">
        <stop offset="0" stop-color="#78DCEA"/>
        <stop offset="0.45" stop-color="#1BB6C6"/>
        <stop offset="1" stop-color="#12508F"/>
      </linearGradient>
      <linearGradient id="bannerGrad" x1="0" y1="0" x2="1" y2="1">
        <stop offset="0" stop-color="#07162E"/>
        <stop offset="0.50" stop-color="#0A2D5A"/>
        <stop offset="1" stop-color="#05152B"/>
      </linearGradient>
      <filter id="softShadow" x="-20%" y="-20%" width="140%" height="140%">
        <feDropShadow dx="0" dy="8" stdDeviation="9" flood-color="#061B38" flood-opacity="0.18"/>
      </filter>
      <filter id="tinyShadow" x="-20%" y="-20%" width="140%" height="140%">
        <feDropShadow dx="0" dy="3" stdDeviation="3" flood-color="#061B38" flood-opacity="0.18"/>
      </filter>
      <style>
        .font { font-family: 'Noto Sans','Arial','Helvetica',sans-serif; }
      </style>
    </defs>
    
<rect width="800" height="800" fill="none"/>

      <g transform="translate(245 88) scale(1.35)">
        <rect x="50" y="24" width="24" height="192" rx="2" fill="#0A2D5A"/>
        <rect x="168" y="24" width="24" height="192" rx="2" fill="#0A2D5A"/>
        <rect x="50" y="110" width="24" height="42" fill="#0A2D5A" opacity="0.96"/>
        <rect x="168" y="92" width="24" height="42" fill="#0A2D5A" opacity="0.96"/>
      </g>
      
      <path d="M 18 137 C 62 150, 83 94, 124 96 C 166 99, 178 139, 225 123" fill="none" stroke="url(#waveGrad)" stroke-width="18" stroke-linecap="round" transform="translate(245 88) scale(1.35)"/>
      <path d="M 23 121 C 65 140, 83 82, 122 82 C 158 82, 177 112, 219 105" fill="none" stroke="#68D7E4" stroke-width="7" stroke-linecap="round" opacity="0.9" transform="translate(245 88) scale(1.35)"/>
    
<text x="400" y="585" text-anchor="middle" class="font" fill="#0A2D5A" font-size="82" font-weight="700" letter-spacing="10">HYDRADATA</text>
<line x1="320" y1="635" x2="480" y2="635" stroke="#1BB6C6" stroke-width="7" stroke-linecap="round"/>
</svg>